<?xml version="1.0" encoding="UTF-8" standalone="no"?>
<!-- Created with Inkscape (http://www.inkscape.org/) -->

<svg
   width="512"
   height="512"
   viewBox="0 0 135.46666 135.46666"
   version="1.1"
   id="svg5"
   inkscape:version="1.2.2 (b0a8486541, 2022-12-01)"
   sodipodi:docname="Apex_Pack_Icon.svg"
   xmlns:inkscape="http://www.inkscape.org/namespaces/inkscape"
   xmlns:sodipodi="http://sodipodi.sourceforge.net/DTD/sodipodi-0.dtd"
   xmlns="http://www.w3.org/2000/svg"
   xmlns:svg="http://www.w3.org/2000/svg">
  <sodipodi:namedview
     id="namedview7"
     pagecolor="#ffffff"
     bordercolor="#666666"
     borderopacity="1.0"
     inkscape:pageshadow="2"
     inkscape:pageopacity="0"
     inkscape:pagecheckerboard="0"
     inkscape:document-units="px"
     showgrid="false"
     inkscape:zoom="1.8244669"
     inkscape:cx="279.80776"
     inkscape:cy="156.21001"
     inkscape:window-width="1920"
     inkscape:window-height="1017"
     inkscape:window-x="-8"
     inkscape:window-y="-8"
     inkscape:window-maximized="1"
     inkscape:current-layer="layer1"
     inkscape:object-nodes="false"
     units="px"
     width="512px"
     height="512px"
     inkscape:showpageshadow="2"
     inkscape:deskcolor="#d1d1d1" />
  <defs
     id="defs2" />
  <g
     inkscape:label="Layer 1"
     inkscape:groupmode="layer"
     id="layer1">
    <g
       id="g16352"
       transform="matrix(2.5964466,0,0,2.5964466,-275.65597,-445.26559)"
       style="fill:#000000;fill-opacity:1">
      <path
         style="fill:#000000;fill-opacity:1;stroke:none;stroke-width:0.264583px;stroke-linecap:butt;stroke-linejoin:miter;stroke-opacity:1"
         d="m 131.53861,205.41537 -0.90659,-3e-4 0.43505,8.12109 1.37769,2.1e-4 v 0.65302 c -1.07782,0.17379 -1.09331,0.64261 -0.95715,1.15362 l 1.871,-0.92289 2.5e-4,-0.88375 h 0.3589 l 0.30763,-8.121 h -0.97378 v -4.65928 h -1.513 z"
         id="path4072"
         sodipodi:nodetypes="cccccccccccccc" />
      <g
         id="g13421"
         transform="translate(10.664606,79.574372)"
         style="fill:#000000;fill-opacity:1">
        <path
           id="path949"
           style="fill:#000000;fill-opacity:1;stroke:none;stroke-width:0.999999px;stroke-linecap:butt;stroke-linejoin:miter;stroke-opacity:1"
           d="m 453.93945,356.27344 -13.17773,19.95898 -1.25781,-0.77539 -3.10157,3.87695 0.58204,0.67774 -28.00196,41.46875 -0.0976,2.03515 -4.65625,5.44532 9.79687,12.94922 h 13.9082 v 3.01367 h 63.7168 v -3.01367 h 13.42773 l 9.04493,-12.74414 -3.83789,-5.48047 0.0684,-2.05469 -29.28321,-42.39453 -15.79297,-22.96289 z m 2.32617,4.9414 h 6.10352 l 12.69336,17.92383 -0.0977,1.45508 6.97657,10.26953 1.55078,0.0977 20.73437,30.32617 -0.28906,1.74414 4.26172,6.00781 -5.7168,8.13867 h -86.03906 l -5.91107,-7.36229 4.74701,-6.29982 -0.8711,-2.03515 24.51368,-35.55859 1.83984,-0.0977 3.7793,-5.52149 -0.67774,-1.16406 z"
           transform="scale(0.26458333)"
           sodipodi:nodetypes="ccccccccccccccccccccccccccccccccccccccc" />
        <path
           id="path1271"
           style="fill:#000000;fill-opacity:1;stroke:none;stroke-width:2.59644px;stroke-linecap:butt;stroke-linejoin:miter;stroke-opacity:1"
           d="M 251.82617 42.595703 L 225.14258 82.445312 L 226.21289 86 L 208.42188 113.04102 L 203.44141 113.39453 L 149.36328 191.31445 L 149.36328 197.71875 L 137.97852 213.99219 L 148.29297 226.53906 L 362.83008 226.53906 L 372.79492 213.99219 L 361.76562 197.36328 L 364.25391 192.73828 L 317.29102 127.63086 L 313.38086 127.63086 L 285.625 86.355469 L 287.76172 82.445312 L 260.36719 42.595703 L 251.82617 42.595703 z M 256.14258 47.302734 A 2.4999999 2.4999999 0 0 1 258.67188 49.564453 L 258.67578 49.615234 A 2.4999999 2.4999999 0 0 1 256.38281 52.294922 A 2.4999999 2.4999999 0 0 1 253.69141 50.015625 A 2.4999999 2.4999999 0 0 1 255.95703 47.3125 A 2.4999999 2.4999999 0 0 1 256.14258 47.302734 z M 247.72852 112.59961 L 264.33203 112.59961 L 284.96094 145.80469 L 284.70898 153.60938 L 275.9043 168.70117 L 234.39258 168.70117 L 226.8457 153.60938 L 226.8457 145.80469 L 247.72852 112.59961 z M 152.77734 212.39062 A 2.4999998 2.4999998 0 0 1 155.30664 214.65234 L 155.31055 214.70312 A 2.4999998 2.4999998 0 0 1 153.01758 217.38281 A 2.4999998 2.4999998 0 0 1 150.32617 215.10352 A 2.4999998 2.4999998 0 0 1 152.5918 212.40039 A 2.4999998 2.4999998 0 0 1 152.77734 212.39062 z M 358.23633 212.40039 A 2.5 2.5 0 0 1 360.94922 214.6543 L 360.95312 214.70312 A 2.5 2.5 0 0 1 358.66211 217.38281 A 2.5 2.5 0 0 1 355.9707 215.10352 A 2.5 2.5 0 0 1 358.23633 212.40039 z "
           transform="matrix(0.10190208,0,0,0.10190208,95.502018,91.915999)" />
        <path
           id="path2086"
           style="fill:#000000;fill-opacity:1;stroke:none;stroke-width:0.999999px;stroke-linecap:butt;stroke-linejoin:miter;stroke-opacity:1"
           d="m 459.42969,393.13086 c -1.04844,-0.005 -2.09296,0.24713 -2.51563,0.85937 l -5.48047,8.93555 c -0.84778,1.40387 -0.62929,2.409 0,3.69922 l 1.36914,2.60352 h 13.01758 l 1.61524,-2.79688 c 0.71875,-1.34287 0.71429,-2.87185 0,-4.05469 l -5.32032,-8.38672 c -0.30365,-0.51712 -1.49732,-0.85354 -2.68554,-0.85937 z m 0.14453,5.19336 a 4.8695651,4.8695651 0 0 1 4.81055,4.40625 l 0.008,0.0976 a 4.8695651,4.8695651 0 0 1 -4.46485,5.21876 4.8695651,4.8695651 0 0 1 -5.24218,-4.43946 4.8695651,4.8695651 0 0 1 4.41211,-5.26367 4.8695651,4.8695651 0 0 1 0.47656,-0.0195 z"
           transform="scale(0.26458333)" />
        <path
           style="fill:#000000;stroke-width:10;stroke-linejoin:round;fill-opacity:1"
           id="path3830"
           sodipodi:type="arc"
           sodipodi:cx="121.61765"
           sodipodi:cy="106.64615"
           sodipodi:rx="0.58972627"
           sodipodi:ry="0.58972627"
           sodipodi:start="6.2079093"
           sodipodi:end="6.1880474"
           sodipodi:open="true"
           sodipodi:arc-type="arc"
           d="m 122.20571,106.6018 a 0.58972627,0.58972627 0 0 1 -0.54079,0.63218 0.58972627,0.58972627 0 0 1 -0.63485,-0.53764 0.58972627,0.58972627 0 0 1 0.53448,-0.63752 0.58972627,0.58972627 0 0 1 0.64016,0.53131" />
        <path
           style="fill:#000000;fill-opacity:1;stroke:none;stroke-width:0.264583px;stroke-linecap:butt;stroke-linejoin:miter;stroke-opacity:1"
           d="m 120.823,136.9479 1.871,-0.76908 -0.35866,5.56303 h -1.23053 z"
           id="path4696"
           sodipodi:nodetypes="ccccc" />
        <path
           id="path5092"
           style="fill:#000000;fill-opacity:1;stroke:none;stroke-width:0.999999px;stroke-linecap:butt;stroke-linejoin:miter;stroke-opacity:1"
           d="m 427.24805,452.39258 -1.64453,13.97656 c -0.12276,2.07628 -2.75744,1.2054 -4.45313,0.82227 -2.0101,-0.55714 -1.86015,-1.27453 -1.43945,-2.01172 1.30866,-1.6167 -4.71527,-4.29536 -2.49219,0 0.82515,1.63521 -3.12562,3.36171 -3.42383,-0.54492 l -0.30664,-3.13672 c -0.0618,-1.6529 -1.74527,-2.94123 -1.40625,0 0.10367,1.05758 -0.50481,1.28342 -1.16211,1.45312 -3.54244,0.24862 -3.41466,-1.81876 -3.0039,-3.19726 1.40492,-4.88621 -4.31196,-3.92826 -5.23243,-1.9375 2.92177,1.82158 3.89373,5.08991 2.81055,9.88281 0.0825,1.23167 0.84341,1.64904 1.55078,2.13086 l -19.86328,11.33594 c -1.27449,-4.38592 -0.57187,-8.02863 5.42578,-9.6875 -3.59214,-3.82515 -5.65538,-7.74563 -0.38672,-12.11329 -3.16679,-1.43255 -5.25746,0.35351 -7.94531,6.58985 L 367.125,506.93945 c 0.32786,1.45338 -0.13762,2.90795 -0.96875,4.36133 0.15952,0.886 1.19524,1.70931 -0.29102,2.71289 l -0.29101,9.88281 c 1.69766,0.046 2.9699,-1.08087 3.63476,-3.875 l 1.25977,-8.13867 c 1.57983,-1.65029 1.35989,-3.71726 0.58008,-5.91211 l 8.23633,-15.35742 c 1.44272,-2.24099 4.29511,-1.77978 4.65039,-4.06836 l 23.30273,-13.9043 c 1.63374,-1.05715 3.20967,-1.38783 4.65039,0 1.67913,1.7119 5.39168,3.47406 5.6211,6.00782 0.13806,1.77433 2.68293,0.84422 3.875,2.03515 2.9495,3.1815 5.39101,3.09895 7.31445,0 l 6.20117,-11.53125 h 19.38086 l -0.002,-13.51562 H 465.373 v 13.51562 h 18.94336 l 5.91015,10.41602 c 2.50173,5.11076 5.47079,4.33579 7.36328,0.0977 4.51668,-0.019 4.61718,-2.2461 5.4336,-4.11524 l 6.85156,-4.17969 14.52539,9.72852 1.71289,-0.13672 c 3.50868,2.52579 8.0756,3.81697 10.20899,7.94727 0.58587,0.94932 2.15846,1.37936 3.42382,1.98632 l 8.63282,15.21094 c -2.4549,4.35485 1.60758,5.83714 2.19336,16.16797 0.13584,1.58925 3.10014,1.86656 2.94531,0 l -0.68555,-8.70117 c -1.5664,-1.84591 -0.49837,-2.6141 -0.20508,-3.69922 l -1.31054,-4.38867 -16.56836,-38.66016 c 0.45474,-5.16432 -4.33624,-7.88369 -6.97657,-7.65429 4.37953,5.07172 0.66167,10.79691 -0.87109,12.20898 3.96715,2.82161 9.57417,5.2788 4.65039,10.07617 -5.39484,-5.29332 -12.6568,-6.16544 -18.21484,-11.14258 -1.5808,-0.41992 -0.97131,-0.83984 0,-1.25976 -0.63017,-4.47835 -0.88211,-8.75644 2.80859,-10.94727 -0.82692,-2.77752 -6.07535,-2.64764 -5.23242,2.0332 0.54963,2.751 -2.92178,3.63029 -3.00195,1.64844 0.0314,-3.10906 -3.62385,-2.65395 -2.32618,3.29297 0.71307,3.08426 -5.14304,4.13861 -3.29492,-0.67773 1.5911,-3.04762 -3.95967,-1.48867 -3.39062,2.22851 -1.46392,-0.49733 -2.29656,-0.23712 -1.9375,1.45313 -3.07048,0.54918 -3.00131,-1.4471 -3.29492,-2.8086 l -1.87891,-12.88476 z m 2.05468,3.49414 h 9.45508 v 11.09961 h -9.45508 z m 13.22461,0 h 9.45313 v 11.09961 h -9.45313 z m 24.80078,0 h 9.45508 v 11.09961 h -9.45508 z m 11.78516,0 h 11.37305 v 11.09961 h -11.37305 z m -49.10547,13.55664 h 2.66016 l -3.58008,6.15234 h -2.27734 z m 56.67969,0.17187 h 2.66016 l 3.19726,6.15235 h -2.27734 z"
           transform="scale(0.26458333)" />
        <path
           style="fill:#000000;stroke:#000000;stroke-width:0.3175;stroke-linecap:round;stroke-linejoin:miter;stroke-miterlimit:4;stroke-dasharray:none;stroke-opacity:1;fill-opacity:1"
           d="m 115.61869,121.18172 -1.5638,1.46126"
           id="path12014" />
        <path
           style="fill:#000000;stroke:#000000;stroke-width:0.3175;stroke-linecap:round;stroke-linejoin:miter;stroke-miterlimit:4;stroke-dasharray:none;stroke-opacity:1;fill-opacity:1"
           d="m 119.16928,121.18175 -1.5638,1.46126"
           id="path12014-9" />
        <path
           style="fill:#000000;stroke:#000000;stroke-width:0.3175;stroke-linecap:round;stroke-linejoin:miter;stroke-miterlimit:4;stroke-dasharray:none;stroke-opacity:1;fill-opacity:1"
           d="m 124.06578,121.18175 1.5638,1.46126"
           id="path12014-7" />
        <path
           style="fill:#000000;stroke:#000000;stroke-width:0.3175;stroke-linecap:round;stroke-linejoin:miter;stroke-miterlimit:4;stroke-dasharray:none;stroke-opacity:1;fill-opacity:1"
           d="m 127.47538,121.18175 1.5638,1.46126"
           id="path12014-4" />
        <path
           id="path12926"
           style="fill:#000000;fill-opacity:1;stroke:none;stroke-width:4.53543;stroke-linecap:round;stroke-linejoin:round;stroke-miterlimit:4;stroke-dasharray:none"
           d="m 397.2793,458.01367 a 6.9136214,6.9136214 0 0 0 -0.41602,0.0234 6.9136214,6.9136214 0 0 0 -6.26562,7.47461 6.9136214,6.9136214 0 0 0 7.44336,6.30273 6.9136214,6.9136214 0 0 0 6.33984,-7.41211 l -0.0117,-0.13672 a 6.9136214,6.9136214 0 0 0 -7.08984,-6.25195 z m 0.16992,2.36914 a 4.4931455,4.4931455 0 0 1 4.46289,4.06641 l 0.008,0.0898 a 4.4931455,4.4931455 0 0 1 -4.12109,4.81641 4.4931455,4.4931455 0 0 1 -4.83594,-4.0957 4.4931455,4.4931455 0 0 1 4.07227,-4.85743 4.4931455,4.4931455 0 0 1 0.41406,-0.0195 z"
           transform="scale(0.26458333)" />
        <path
           id="path12926-7"
           style="fill:#000000;fill-opacity:1;stroke:none;stroke-width:1.2;stroke-linecap:round;stroke-linejoin:round;stroke-miterlimit:4;stroke-dasharray:none"
           d="m 137.86781,121.15737 a 1.829229,1.829229 0 0 0 -0.11007,0.006 1.829229,1.829229 0 0 0 -1.65778,1.97766 1.829229,1.829229 0 0 0 1.96939,1.6676 1.829229,1.829229 0 0 0 1.67742,-1.96112 l -0.003,-0.0362 a 1.829229,1.829229 0 0 0 -1.87585,-1.65416 z m 0.045,0.62684 a 1.1888114,1.1888114 0 0 1 1.18081,1.0759 l 0.002,0.0238 a 1.1888114,1.1888114 0 0 1 -1.09037,1.27434 1.1888114,1.1888114 0 0 1 -1.27951,-1.08365 1.1888114,1.1888114 0 0 1 1.07746,-1.2852 1.1888114,1.1888114 0 0 1 0.10955,-0.005 z" />
      </g>
      <g
         id="g3702"
         transform="matrix(1.9892862,0,0,1.9892862,-166.28314,-89.449837)"
         style="fill:#000000;fill-opacity:1" />
    </g>
  </g>
</svg>
